<svg xmlns="http://www.w3.org/2000/svg" width="390" height="844" viewBox="0 0 390 844" font-family="Poppins, sans-serif">

  <!-- Background -->
  <rect width="390" height="844" fill="#FFFFFF"/>

  <!-- Status Bar -->
  <rect width="390" height="44" fill="#FFFFFF"/>
  <text x="20" y="28" font-size="14" font-weight="600" fill="#1A1A1A">11:16</text>

  <!-- App Bar -->
  <rect x="0" y="44" width="390" height="56" fill="#FFFFFF"/>
  <text x="16" y="80" font-size="20" fill="#1A1A1A">&#8249;</text>
  <text x="56" y="82" font-size="20" font-weight="700" fill="#1A1A1A">All Products</text>
  <circle cx="366" cy="72" r="2.5" fill="#1A1A1A"/>
  <circle cx="366" cy="80" r="2.5" fill="#1A1A1A"/>
  <circle cx="366" cy="88" r="2.5" fill="#1A1A1A"/>

  <!-- Search Bar -->
  <rect x="16" y="112" width="358" height="48" rx="24" fill="#F2F2F2"/>
  <circle cx="46" cy="136" r="9" stroke="#9E9E9E" stroke-width="2" fill="none"/>
  <line x1="52" y1="142" x2="58" y2="148" stroke="#9E9E9E" stroke-width="2" stroke-linecap="round"/>
  <text x="68" y="141" font-size="14" fill="#BDBDBD">Search products</text>

  <!-- Category Chips -->
  <rect x="16"  y="176" width="44" height="36" rx="18" fill="#4CAF82"/>
  <text x="38"  y="199" font-size="13" font-weight="600" fill="#FFFFFF" text-anchor="middle">All</text>
  <rect x="68"  y="176" width="62" height="36" rx="18" fill="#FFFFFF" stroke="#E0E0E0" stroke-width="1.5"/>
  <text x="99"  y="199" font-size="13" fill="#1A1A1A" text-anchor="middle">Fruits</text>
  <rect x="138" y="176" width="90" height="36" rx="18" fill="#FFFFFF" stroke="#E0E0E0" stroke-width="1.5"/>
  <text x="183" y="199" font-size="13" fill="#1A1A1A" text-anchor="middle">Vegetables</text>
  <rect x="236" y="176" width="58" height="36" rx="18" fill="#FFFFFF" stroke="#E0E0E0" stroke-width="1.5"/>
  <text x="265" y="199" font-size="13" fill="#1A1A1A" text-anchor="middle">Dairy</text>
  <rect x="302" y="176" width="66" height="36" rx="18" fill="#FFFFFF" stroke="#E0E0E0" stroke-width="1.5"/>
  <text x="335" y="199" font-size="13" fill="#1A1A1A" text-anchor="middle">Bakery</text>

  <!-- ─── Product Card: Apples ───
       Card: x=16 y=228 w=358 h=80
       Circle: r=40, center=(56, 268) → left edge at x=16, perfectly flush with card left -->
  <rect x="16" y="228" width="358" height="80" rx="16" fill="#FFFFFF" stroke="#F0F0F0" stroke-width="1.5"/>
  <circle cx="56" cy="268" r="40" fill="#E8F5EE"/>
  <text x="56" y="277" font-size="30" text-anchor="middle">🍎</text>
  <text x="112" y="258" font-size="15" font-weight="700" fill="#1A1A1A">Apples</text>
  <circle cx="114" cy="275" r="4" fill="#4CAF82"/>
  <text x="122" y="279" font-size="12" fill="#757575">Fruits  5.0 kg</text>
  <text x="358" y="273" font-size="18" fill="#BDBDBD" text-anchor="middle">›</text>

  <!-- ─── Product Card: Bananas ───
       Card: x=16 y=320 w=358 h=80
       Circle: r=40, center=(56, 360) -->
  <rect x="16" y="320" width="358" height="80" rx="16" fill="#FFFFFF" stroke="#F0F0F0" stroke-width="1.5"/>
  <circle cx="56" cy="360" r="40" fill="#E8F5EE"/>
  <text x="56" y="369" font-size="30" text-anchor="middle">🍌</text>
  <text x="112" y="350" font-size="15" font-weight="700" fill="#1A1A1A">Bananas</text>
  <circle cx="114" cy="367" r="4" fill="#4CAF82"/>
  <text x="122" y="371" font-size="12" fill="#757575">Fruits  2.0 kg</text>
  <rect x="254" y="354" width="106" height="22" rx="11" fill="#FFF3E0" stroke="#FFB74D" stroke-width="1"/>
  <text x="307" y="369" font-size="11" fill="#E65100" text-anchor="middle">Exp. 30/4/2026</text>

  <!-- ─── Product Card: Carrots ───
       Card: x=16 y=412 w=358 h=80
       Circle: r=40, center=(56, 452) -->
  <rect x="16" y="412" width="358" height="80" rx="16" fill="#FFFFFF" stroke="#F0F0F0" stroke-width="1.5"/>
  <circle cx="56" cy="452" r="40" fill="#E8F5EE"/>
  <text x="56" y="461" font-size="30" text-anchor="middle">🥕</text>
  <text x="112" y="442" font-size="15" font-weight="700" fill="#1A1A1A">Carrots</text>
  <circle cx="114" cy="459" r="4" fill="#4CAF82"/>
  <text x="122" y="463" font-size="12" fill="#757575">Vegetables  3.0 kg</text>
  <text x="358" y="457" font-size="18" fill="#BDBDBD" text-anchor="middle">›</text>

  <!-- ─── Product Card: Tomatoes ───
       Card: x=16 y=504 w=358 h=80
       Circle: r=40, center=(56, 544) -->
  <rect x="16" y="504" width="358" height="80" rx="16" fill="#FFFFFF" stroke="#F0F0F0" stroke-width="1.5"/>
  <circle cx="56" cy="544" r="40" fill="#E8F5EE"/>
  <text x="56" y="553" font-size="30" text-anchor="middle">🍅</text>
  <text x="112" y="534" font-size="15" font-weight="700" fill="#1A1A1A">Tomatoes</text>
  <circle cx="114" cy="551" r="4" fill="#4CAF82"/>
  <text x="122" y="555" font-size="12" fill="#757575">Vegetables  1.5 kg</text>

  <!-- FAB -->
  <circle cx="350" cy="716" r="28" fill="#4CAF82"/>
  <line x1="350" y1="704" x2="350" y2="728" stroke="#FFFFFF" stroke-width="2.5" stroke-linecap="round"/>
  <line x1="338" y1="716" x2="362" y2="716" stroke="#FFFFFF" stroke-width="2.5" stroke-linecap="round"/>

  <!-- Bottom Nav Bar -->
  <rect x="0" y="756" width="390" height="88" fill="#FFFFFF"/>
  <line x1="0" y1="756" x2="390" y2="756" stroke="#F0F0F0" stroke-width="1"/>

  <!-- Plan -->
  <text x="44"  y="788" font-size="22" text-anchor="middle">📅</text>
  <text x="44"  y="808" font-size="11" fill="#9E9E9E" text-anchor="middle">Plan</text>
  <!-- Shop -->
  <text x="124" y="788" font-size="22" text-anchor="middle">🛒</text>
  <text x="124" y="808" font-size="11" fill="#9E9E9E" text-anchor="middle">Shop</text>
  <!-- Recipes -->
  <text x="204" y="788" font-size="22" text-anchor="middle">📖</text>
  <text x="204" y="808" font-size="11" fill="#9E9E9E" text-anchor="middle">Recipes</text>
  <!-- Pantry -->
  <text x="284" y="788" font-size="22" text-anchor="middle">🗄️</text>
  <text x="284" y="808" font-size="11" fill="#9E9E9E" text-anchor="middle">Pantry</text>
  <!-- Settings (active) -->
  <circle cx="364" cy="783" r="8" stroke="#4CAF82" stroke-width="2" fill="none"/>
  <circle cx="364" cy="783" r="3" fill="#4CAF82"/>
  <text x="364" y="808" font-size="11" fill="#4CAF82" font-weight="600" text-anchor="middle">Settings</text>

  <!-- Home indicator -->
  <rect x="155" y="830" width="80" height="4" rx="2" fill="#1A1A1A" opacity="0.2"/>

</svg>
